<svg xmlns="http://www.w3.org/2000/svg" width="43" height="23.667" viewBox="0 0 43 23.667"><defs><style>.a{fill:#929ca1;}</style></defs><g transform="translate(-99.5 -220.7)"><path class="a" d="M99.522,223.214a.7.7,0,0,0,.067-.128A3.294,3.294,0,0,1,103,220.7h35.813c1.982,0,3.112.769,3.638,2.455.011.02.034.039.045.059v18.634c-.034.089-.067.177-.1.276a3.3,3.3,0,0,1-3.258,2.238c-4.747.01-9.482,0-14.229,0-.582,0-.963-.286-.974-.72-.011-.454.369-.759.974-.759h13.971c1.265,0,1.926-.572,1.926-1.676V223.8c0-1.006-.694-1.617-1.825-1.617h-35.97c-1.142,0-1.825.611-1.825,1.607v17.48c0,1,.694,1.607,1.836,1.607h13.8c.134,0,.28-.01.414,0a.737.737,0,1,1,.011,1.469c-.515.02-1.03.01-1.556.01H103.06a3.29,3.29,0,0,1-3.5-2.416c-.011-.03-.045-.059-.056-.1Q99.534,232.536,99.522,223.214Z" transform="translate(0)"/><path class="a" d="M164.211,273.065a7.458,7.458,0,1,1-7.317-7.367A7.416,7.416,0,0,1,164.211,273.065Zm-7.476,5.876a5.887,5.887,0,1,0-5.945-5.807A5.943,5.943,0,0,0,156.735,278.941Z" transform="translate(-44.847 -40.524)"/><path class="a" d="M334.7,357.191h-4.5c-.547,0-.885-.278-.895-.726-.01-.467.338-.766.895-.766h9.127a.754.754,0,1,1,0,1.491C337.779,357.2,336.238,357.191,334.7,357.191Z" transform="translate(-202.139 -121.698)"/><path class="a" d="M334.717,402.191h-4.583a.747.747,0,0,1-.835-.746.767.767,0,0,1,.845-.746h9.167c.537,0,.875.3.875.746s-.338.746-.885.746C337.769,402.2,336.238,402.191,334.717,402.191Z" transform="translate(-202.139 -162.263)"/><path class="a" d="M332.5,265.7h2.346a.754.754,0,1,1,0,1.491h-4.683a.766.766,0,0,1-.865-.766c.01-.437.338-.726.865-.726Z" transform="translate(-203.491 -40.566)"/><path class="a" d="M332.47,312.151h-2.307c-.537,0-.875-.308-.865-.756a.763.763,0,0,1,.855-.736c1.571,0,3.152-.01,4.723,0a.746.746,0,0,1,.825.756.755.755,0,0,1-.815.736C334.08,312.161,333.275,312.151,332.47,312.151Z" transform="translate(-203.492 -81.092)"/><path class="a" d="M284.934,447.191a.746.746,0,1,1,.756-.716A.747.747,0,0,1,284.934,447.191Z" transform="translate(-163.927 -202.829)"/></g></svg>