<svg xmlns="http://www.w3.org/2000/svg" width="46.521" height="47.937" viewBox="0 0 46.521 47.937"><defs><style>.a{fill:#929ca1;}</style></defs><g transform="translate(0 12.198) rotate(-20)"><path class="a" d="M109.914,403a1.113,1.113,0,0,0-1.114,1.114v1.263a1.114,1.114,0,0,0,2.229,0v-1.263A1.113,1.113,0,0,0,109.914,403Z" transform="translate(-100.718 -373.064)"/><path class="a" d="M212.169,218.607a1.291,1.291,0,0,0,1.827,0l6.128-6.128a1.114,1.114,0,0,0-1.575-1.575l-5.467,5.467-1.6-1.6a1.114,1.114,0,0,0-1.575,1.575Z" transform="translate(-194.007 -194.933)"/><path class="a" d="M32.232,28.674h-.4V11.447a2.265,2.265,0,0,0-2.266-2.266H12.405V5.022A5.022,5.022,0,0,0,7.4,0H3.424a3.424,3.424,0,0,0,0,6.849H5.564V13.52a1.113,1.113,0,0,0,1.114,1.114h0A1.113,1.113,0,0,0,7.792,13.52V5.95A1.325,1.325,0,0,0,6.47,4.628H3.424a1.2,1.2,0,0,1,0-2.4H7.4a2.791,2.791,0,0,1,2.778,2.793V25.405a6.067,6.067,0,0,0-.973-.074,6.323,6.323,0,0,0-1.411.156V20.651a1.113,1.113,0,0,0-1.114-1.114h0a1.113,1.113,0,0,0-1.114,1.114v5.831A6.345,6.345,0,1,0,14.24,35.53h18a3.428,3.428,0,0,0-.007-6.856ZM9.2,35.8A4.123,4.123,0,1,1,13.3,31.682,4.12,4.12,0,0,1,9.2,35.8Zm3.209-9.6V11.41H29.572a.035.035,0,0,1,.037.037V28.674H14.783A6.5,6.5,0,0,0,12.405,26.2Zm19.826,7.1H15.325a6.509,6.509,0,0,0,.208-1.627,6.639,6.639,0,0,0-.045-.773H32.232a1.2,1.2,0,0,1,0,2.4Z"/><path class="a" d="M76.1,220.236H75.94a1.043,1.043,0,0,1-1.04-1.04v-.156A1.043,1.043,0,0,1,75.94,218H76.1a1.043,1.043,0,0,1,1.04,1.04v.156A1.048,1.048,0,0,1,76.1,220.236Z" transform="translate(-69.336 -201.806)"/></g></svg>