<svg xmlns="http://www.w3.org/2000/svg" width="35.382" height="38.676" viewBox="0 0 35.382 38.676"><defs><style>.a{fill:#929ca1;stroke:#929ca1;stroke-width:0.5px;}</style></defs><g transform="translate(-65.95 -82.5)"><path class="a" d="M94.025,343.8H89.935v-7.8a6.295,6.295,0,0,0-12.589,0v7.8h-8.38a1.392,1.392,0,0,1-1.388-1.388v-9.621a.689.689,0,0,0-1.378,0v9.63a2.769,2.769,0,0,0,2.766,2.766H94.025a.694.694,0,0,0,.689-.689.7.7,0,0,0-.689-.7Zm-15.291-7.8a4.907,4.907,0,0,1,9.814,0v7.8H78.734Z" transform="translate(0 -224.258)"/><path class="a" d="M85.157,83.4h0a2.1,2.1,0,0,0-3.032,0L66.393,99.773h0l-.193.2v5.339a.689.689,0,0,0,1.378,0v-4.788L83.117,84.344a.732.732,0,0,1,1.048,0C96.552,97.237,94.1,94.682,99.7,100.526v17.625a1.392,1.392,0,0,1-1.388,1.388H97.25a.689.689,0,0,0,0,1.378h1.066a2.771,2.771,0,0,0,2.766-2.748V99.975L85.157,83.4Z"/></g></svg>